# xmcd
#
# Track frame offsets:
#	150
#	13170
#	33420
#	54830
#	74142
#	91080
#	111245
#	128897
#	149135
#	163827
#
# Disc length: 2389 seconds
#
# Revision: 4
# Processed by: cddbd v1.5.2PL0 Copyright (c) Steve Scherf et al.
# Submitted via: EasyCDDAExtractor 15.3.0.1
#
DISCID=9209530a
DTITLE=Chayanne - Chayanne 2
DYEAR=1988
DGENRE=Latin
TTITLE0=Tu Pirata Soy Yo
TTITLE1=Dile A Todo El Mundo No
TTITLE2=Fuiste Un Trozo De Hielo En La Escarcha
TTITLE3=Pata Pata (Duo Con Miriam Makeba)
TTITLE4=Palo Bonito
TTITLE5=Este Ritmo Se Baila Asi (Sye Bwa)
TTITLE6=Marinero
TTITLE7=Fantasias
TTITLE8=Tengo Esperanza (Gritos De Guerra)
TTITLE9=Conquistador
EXTD=
EXTT0=
EXTT1=
EXTT2=
EXTT3=
EXTT4=
EXTT5=
EXTT6=
EXTT7=
EXTT8=
EXTT9=
PLAYORDER=
